M48
; DRILL file {KiCad 9.0.2} date 2025-12-19T14:34:24+0100
; FORMAT={-:-/ absolute / metric / decimal}
; #@! TF.CreationDate,2025-12-19T14:34:24+01:00
; #@! TF.GenerationSoftware,Kicad,Pcbnew,9.0.2
; #@! TF.FileFunction,Plated,1,2,PTH
FMAT,2
METRIC
; #@! TA.AperFunction,Plated,PTH,ViaDrill
T1C0.800
; #@! TA.AperFunction,Plated,PTH,ComponentDrill
T2C0.800
; #@! TA.AperFunction,Plated,PTH,ComponentDrill
T3C1.000
%
G90
G05
T1
X4.81Y3.39
X4.87Y58.51
X16.8Y35.72
X17.22Y16.09
X17.27Y18.63
X19.34Y49.72
X19.34Y23.97
X24.42Y32.78
X26.96Y24.47
X30.124Y25.094
X32.04Y49.47
X35.39Y38.8
X39.79Y42.13
X44.74Y31.044
X47.28Y50.22
X50.84Y10.22
X52.31Y44.88
X60.19Y42.13
X61.75Y49.85
X65.25Y42.095
X68.11Y44.36
X68.11Y11.49
X68.25Y56.22
X70.86Y47.7
X73.28Y42.095
X79.25Y28.64
X88.18Y38.8
X89.35Y55.0
X90.74Y18.72
X90.84Y38.89
X90.87Y3.445
X91.965Y54.945
X94.505Y55.094
X95.97Y11.51
X98.1Y31.04
X98.243Y34.067
X103.79Y42.42
X104.19Y34.58
X104.2Y47.57
X107.17Y3.42
X107.27Y58.31
T2
X1.56Y53.72
X1.563Y28.324
X4.1Y53.72
X4.103Y28.324
X6.64Y53.72
X6.64Y28.32
X8.81Y42.57
X8.81Y40.07
X9.18Y53.72
X9.18Y28.32
X11.72Y53.72
X11.72Y28.32
X14.26Y53.72
X14.26Y28.32
X16.8Y53.72
X16.8Y28.32
X19.34Y53.72
X19.34Y28.32
X21.88Y53.72
X21.88Y28.32
X24.42Y53.72
X24.42Y28.32
X26.96Y53.72
X26.96Y28.32
X29.5Y53.72
X29.5Y28.32
X32.04Y53.72
X32.04Y28.32
X34.58Y53.72
X34.58Y28.32
X37.12Y53.72
X37.12Y28.32
X39.66Y53.72
X39.66Y28.32
X42.2Y53.72
X42.2Y28.32
X44.74Y53.72
X44.74Y28.32
X47.28Y53.72
X47.28Y28.32
X65.0Y38.8
X65.0Y28.64
X75.0Y38.88
X75.0Y28.72
X84.75Y38.8
X84.75Y28.64
X94.28Y38.8
X94.28Y28.64
T3
X12.06Y18.84
X12.06Y16.3
X12.06Y13.76
X12.06Y11.22
X12.06Y8.68
X12.06Y6.14
X56.72Y18.96
X56.72Y16.42
X56.72Y13.88
X56.72Y11.34
X56.72Y8.8
X56.72Y6.26
X56.72Y3.72
X65.67Y51.22
X68.21Y51.22
X70.75Y51.22
X73.29Y51.22
X86.89Y51.47
X89.43Y51.47
X91.97Y51.47
X94.25Y18.72
X94.25Y16.18
X94.25Y5.985
X94.25Y3.445
X94.51Y51.47
X108.57Y47.47
X108.57Y44.93
X108.57Y42.39
X108.57Y39.85
X108.57Y37.31
X108.57Y34.77
X108.57Y32.23
X108.57Y29.69
X108.57Y27.15
X108.57Y24.61
X108.57Y22.07
X108.57Y19.53
X108.57Y16.99
X108.57Y14.45
M30
