%TF.GenerationSoftware,KiCad,Pcbnew,9.0.2*%
%TF.CreationDate,2025-12-19T14:33:50+01:00*%
%TF.ProjectId,SkyClock32,536b7943-6c6f-4636-9b33-322e6b696361,rev?*%
%TF.SameCoordinates,PX4524320PY6997400*%
%TF.FileFunction,Copper,L2,Bot*%
%TF.FilePolarity,Positive*%
%FSLAX46Y46*%
G04 Gerber Fmt 4.6, Leading zero omitted, Abs format (unit mm)*
G04 Created by KiCad (PCBNEW 9.0.2) date 2025-12-19 14:33:50*
%MOMM*%
%LPD*%
G01*
G04 APERTURE LIST*
G04 Aperture macros list*
%AMRoundRect*
0 Rectangle with rounded corners*
0 $1 Rounding radius*
0 $2 $3 $4 $5 $6 $7 $8 $9 X,Y pos of 4 corners*
0 Add a 4 corners polygon primitive as box body*
4,1,4,$2,$3,$4,$5,$6,$7,$8,$9,$2,$3,0*
0 Add four circle primitives for the rounded corners*
1,1,$1+$1,$2,$3*
1,1,$1+$1,$4,$5*
1,1,$1+$1,$6,$7*
1,1,$1+$1,$8,$9*
0 Add four rect primitives between the rounded corners*
20,1,$1+$1,$2,$3,$4,$5,0*
20,1,$1+$1,$4,$5,$6,$7,0*
20,1,$1+$1,$6,$7,$8,$9,0*
20,1,$1+$1,$8,$9,$2,$3,0*%
G04 Aperture macros list end*
%TA.AperFunction,ComponentPad*%
%ADD10R,1.700000X1.700000*%
%TD*%
%TA.AperFunction,ComponentPad*%
%ADD11C,1.700000*%
%TD*%
%TA.AperFunction,ComponentPad*%
%ADD12R,1.200000X2.000000*%
%TD*%
%TA.AperFunction,ComponentPad*%
%ADD13O,1.200000X2.000000*%
%TD*%
%TA.AperFunction,ComponentPad*%
%ADD14C,1.600000*%
%TD*%
%TA.AperFunction,ComponentPad*%
%ADD15RoundRect,0.250000X0.550000X-0.550000X0.550000X0.550000X-0.550000X0.550000X-0.550000X-0.550000X0*%
%TD*%
%TA.AperFunction,ViaPad*%
%ADD16C,3.200000*%
%TD*%
%TA.AperFunction,ViaPad*%
%ADD17C,1.800000*%
%TD*%
%TA.AperFunction,Conductor*%
%ADD18C,1.100000*%
%TD*%
G04 APERTURE END LIST*
D10*
%TO.P,J5,1,Pin_1*%
%TO.N,Net-(J1-Pin_1)*%
X65670000Y51220000D03*
D11*
%TO.P,J5,2,Pin_2*%
%TO.N,Net-(J1-Pin_2)*%
X68210000Y51220000D03*
%TO.P,J5,3,Pin_3*%
%TO.N,Net-(J3-Pin_4)*%
X70750000Y51220000D03*
%TO.P,J5,4,Pin_4*%
%TO.N,Net-(J3-Pin_3)*%
X73290000Y51220000D03*
%TD*%
D12*
%TO.P,U1,1,3V3*%
%TO.N,Net-(J1-Pin_1)*%
X47280000Y53720000D03*
D13*
%TO.P,U1,2,EN*%
%TO.N,unconnected-(U1-EN-Pad2)*%
X44740000Y53720000D03*
%TO.P,U1,3,SENSOR_VP*%
%TO.N,unconnected-(U1-SENSOR_VP-Pad3)*%
X42200000Y53720000D03*
%TO.P,U1,4,SENSOR_VN*%
%TO.N,unconnected-(U1-SENSOR_VN-Pad4)*%
X39660000Y53720000D03*
%TO.P,U1,5,IO34*%
%TO.N,Net-(J7-Pin_2)*%
X37120000Y53720000D03*
%TO.P,U1,6,IO35*%
%TO.N,unconnected-(U1-IO35-Pad6)*%
X34580000Y53720000D03*
%TO.P,U1,7,IO32*%
%TO.N,Net-(J3-Pin_4)*%
X32040000Y53720000D03*
%TO.P,U1,8,IO33*%
%TO.N,unconnected-(U1-IO33-Pad8)*%
X29500000Y53720000D03*
%TO.P,U1,9,IO25*%
%TO.N,Net-(J2-Pin_7)*%
X26960000Y53720000D03*
%TO.P,U1,10,IO26*%
%TO.N,Net-(J2-Pin_6)*%
X24420000Y53720000D03*
%TO.P,U1,11,IO27*%
%TO.N,unconnected-(U1-IO27-Pad11)*%
X21880000Y53720000D03*
%TO.P,U1,12,IO14*%
%TO.N,Net-(J6-Pin_1)*%
X19340000Y53720000D03*
%TO.P,U1,13,IO12*%
%TO.N,unconnected-(U1-IO12-Pad13)*%
X16800000Y53720000D03*
%TO.P,U1,14,GND1*%
%TO.N,Net-(U1-GND1)*%
X14260000Y53720000D03*
%TO.P,U1,15,IO13*%
%TO.N,unconnected-(U1-IO13-Pad15)*%
X11720000Y53720000D03*
%TO.P,U1,16,SD2*%
%TO.N,unconnected-(U1-SD2-Pad16)*%
X9180000Y53720000D03*
%TO.P,U1,17,SD3*%
%TO.N,unconnected-(U1-SD3-Pad17)*%
X6640000Y53720000D03*
%TO.P,U1,18,CMD*%
%TO.N,unconnected-(U1-CMD-Pad18)*%
X4100000Y53720000D03*
%TO.P,U1,19,EXT_5V*%
%TO.N,Net-(J2-Pin_1)*%
X1560000Y53720000D03*
%TO.P,U1,20,CLK*%
%TO.N,unconnected-(U1-CLK-Pad20)*%
X1562720Y28323680D03*
%TO.P,U1,21,SD0*%
%TO.N,unconnected-(U1-SD0-Pad21)*%
X4102720Y28323680D03*
%TO.P,U1,22,SD1*%
%TO.N,unconnected-(U1-SD1-Pad22)*%
X6640000Y28320000D03*
%TO.P,U1,23,IO15*%
%TO.N,unconnected-(U1-IO15-Pad23)*%
X9180000Y28320000D03*
%TO.P,U1,24,IO2*%
%TO.N,unconnected-(U1-IO2-Pad24)*%
X11720000Y28320000D03*
%TO.P,U1,25,IO0*%
%TO.N,unconnected-(U1-IO0-Pad25)*%
X14260000Y28320000D03*
%TO.P,U1,26,IO4*%
%TO.N,Net-(J1-Pin_4)*%
X16800000Y28320000D03*
%TO.P,U1,27,IO16*%
%TO.N,Net-(J1-Pin_8)*%
X19340000Y28320000D03*
%TO.P,U1,28,IO17*%
%TO.N,unconnected-(U1-IO17-Pad28)*%
X21880000Y28320000D03*
%TO.P,U1,29,IO5*%
%TO.N,Net-(J1-Pin_3)*%
X24420000Y28320000D03*
%TO.P,U1,30,IO18*%
%TO.N,Net-(J1-Pin_7)*%
X26960000Y28320000D03*
%TO.P,U1,31,IO19*%
%TO.N,Net-(J1-Pin_5)*%
X29500000Y28320000D03*
%TO.P,U1,32,GND2*%
%TO.N,unconnected-(U1-GND2-Pad32)*%
X32040000Y28320000D03*
%TO.P,U1,33,IO21*%
%TO.N,Net-(J3-Pin_3)*%
X34580000Y28320000D03*
%TO.P,U1,34,RXD0*%
%TO.N,unconnected-(U1-RXD0-Pad34)*%
X37120000Y28320000D03*
%TO.P,U1,35,TXD0*%
%TO.N,unconnected-(U1-TXD0-Pad35)*%
X39660000Y28320000D03*
%TO.P,U1,36,IO22*%
%TO.N,Net-(J2-Pin_5)*%
X42200000Y28320000D03*
%TO.P,U1,37,IO23*%
%TO.N,Net-(J1-Pin_6)*%
X44740000Y28320000D03*
%TO.P,U1,38,GND3*%
%TO.N,Net-(J1-Pin_2)*%
X47280000Y28320000D03*
%TD*%
D14*
%TO.P,R2,1*%
%TO.N,Net-(J1-Pin_1)*%
X75000000Y28720000D03*
%TO.P,R2,2*%
%TO.N,Net-(J3-Pin_4)*%
X75000000Y38880000D03*
%TD*%
D10*
%TO.P,J7,1,Pin_1*%
%TO.N,Net-(J1-Pin_1)*%
X94250000Y3445000D03*
D11*
%TO.P,J7,2,Pin_2*%
%TO.N,Net-(J7-Pin_2)*%
X94250000Y5985000D03*
%TD*%
D10*
%TO.P,J6,1,Pin_1*%
%TO.N,Net-(J6-Pin_1)*%
X94250000Y16180000D03*
D11*
%TO.P,J6,2,Pin_2*%
%TO.N,Net-(J1-Pin_2)*%
X94250000Y18720000D03*
%TD*%
D10*
%TO.P,J4,1,Pin_1*%
%TO.N,Net-(J1-Pin_1)*%
X86890000Y51470000D03*
D11*
%TO.P,J4,2,Pin_2*%
%TO.N,Net-(J1-Pin_2)*%
X89430000Y51470000D03*
%TO.P,J4,3,Pin_3*%
%TO.N,Net-(J3-Pin_4)*%
X91970000Y51470000D03*
%TO.P,J4,4,Pin_4*%
%TO.N,Net-(J3-Pin_3)*%
X94510000Y51470000D03*
%TD*%
D15*
%TO.P,C1,1*%
%TO.N,Net-(J2-Pin_1)*%
X8810000Y40070000D03*
D14*
%TO.P,C1,2*%
%TO.N,Net-(U1-GND1)*%
X8810000Y42570000D03*
%TD*%
%TO.P,R4,1*%
%TO.N,Net-(J7-Pin_2)*%
X94280000Y28640000D03*
%TO.P,R4,2*%
%TO.N,Net-(J1-Pin_2)*%
X94280000Y38800000D03*
%TD*%
%TO.P,R3,1*%
%TO.N,Net-(J1-Pin_1)*%
X84750000Y28640000D03*
%TO.P,R3,2*%
%TO.N,Net-(J6-Pin_1)*%
X84750000Y38800000D03*
%TD*%
D10*
%TO.P,J2,1,Pin_1*%
%TO.N,Net-(J2-Pin_1)*%
X56720000Y3720000D03*
D11*
%TO.P,J2,2,Pin_2*%
%TO.N,Net-(J1-Pin_2)*%
X56720000Y6260000D03*
%TO.P,J2,3,Pin_3*%
%TO.N,unconnected-(J2-Pin_3-Pad3)*%
X56720000Y8800000D03*
%TO.P,J2,4,Pin_4*%
%TO.N,unconnected-(J2-Pin_4-Pad4)*%
X56720000Y11340000D03*
%TO.P,J2,5,Pin_5*%
%TO.N,Net-(J2-Pin_5)*%
X56720000Y13880000D03*
%TO.P,J2,6,Pin_6*%
%TO.N,Net-(J2-Pin_6)*%
X56720000Y16420000D03*
%TO.P,J2,7,Pin_7*%
%TO.N,Net-(J2-Pin_7)*%
X56720000Y18960000D03*
%TD*%
D10*
%TO.P,J3,1,Pin_1*%
%TO.N,Net-(J1-Pin_2)*%
X12060000Y18840000D03*
D11*
%TO.P,J3,2,Pin_2*%
%TO.N,Net-(J1-Pin_1)*%
X12060000Y16300000D03*
%TO.P,J3,3,Pin_3*%
%TO.N,Net-(J3-Pin_3)*%
X12060000Y13760000D03*
%TO.P,J3,4,Pin_4*%
%TO.N,Net-(J3-Pin_4)*%
X12060000Y11220000D03*
%TO.P,J3,5,Pin_5*%
%TO.N,unconnected-(J3-Pin_5-Pad5)*%
X12060000Y8680000D03*
%TO.P,J3,6,Pin_6*%
%TO.N,unconnected-(J3-Pin_6-Pad6)*%
X12060000Y6140000D03*
%TD*%
D10*
%TO.P,J1,1,Pin_1*%
%TO.N,Net-(J1-Pin_1)*%
X108570000Y47470000D03*
D11*
%TO.P,J1,2,Pin_2*%
%TO.N,Net-(J1-Pin_2)*%
X108570000Y44930000D03*
%TO.P,J1,3,Pin_3*%
%TO.N,Net-(J1-Pin_3)*%
X108570000Y42390000D03*
%TO.P,J1,4,Pin_4*%
%TO.N,Net-(J1-Pin_4)*%
X108570000Y39850000D03*
%TO.P,J1,5,Pin_5*%
%TO.N,Net-(J1-Pin_5)*%
X108570000Y37310000D03*
%TO.P,J1,6,Pin_6*%
%TO.N,Net-(J1-Pin_6)*%
X108570000Y34770000D03*
%TO.P,J1,7,Pin_7*%
%TO.N,Net-(J1-Pin_7)*%
X108570000Y32230000D03*
%TO.P,J1,8,Pin_8*%
%TO.N,Net-(J1-Pin_8)*%
X108570000Y29690000D03*
%TO.P,J1,9,Pin_9*%
%TO.N,unconnected-(J1-Pin_9-Pad9)*%
X108570000Y27150000D03*
%TO.P,J1,10,Pin_10*%
%TO.N,unconnected-(J1-Pin_10-Pad10)*%
X108570000Y24610000D03*
%TO.P,J1,11,Pin_11*%
%TO.N,unconnected-(J1-Pin_11-Pad11)*%
X108570000Y22070000D03*
%TO.P,J1,12,Pin_12*%
%TO.N,unconnected-(J1-Pin_12-Pad12)*%
X108570000Y19530000D03*
%TO.P,J1,13,Pin_13*%
%TO.N,unconnected-(J1-Pin_13-Pad13)*%
X108570000Y16990000D03*
%TO.P,J1,14,Pin_14*%
%TO.N,unconnected-(J1-Pin_14-Pad14)*%
X108570000Y14450000D03*
%TD*%
D14*
%TO.P,R1,1*%
%TO.N,Net-(J1-Pin_1)*%
X65000000Y28640000D03*
%TO.P,R1,2*%
%TO.N,Net-(J3-Pin_3)*%
X65000000Y38800000D03*
%TD*%
D16*
%TO.N,*%
X4870000Y58510000D03*
X107170000Y3420000D03*
X4810000Y3390000D03*
X107270000Y58310000D03*
D17*
%TO.N,Net-(J1-Pin_6)*%
X98100000Y31040000D03*
X44740000Y31043973D03*
X104190000Y34580000D03*
%TO.N,Net-(J1-Pin_7)*%
X26960000Y24470000D03*
%TO.N,Net-(J1-Pin_8)*%
X19340000Y23970000D03*
%TO.N,Net-(J1-Pin_1)*%
X17220000Y16090000D03*
X61750000Y49850000D03*
X79250000Y28640000D03*
X90870000Y3445000D03*
X104200000Y47570000D03*
X47280000Y50220000D03*
%TO.N,Net-(J1-Pin_2)*%
X68250000Y56220000D03*
X50840000Y10220000D03*
X89350000Y55000000D03*
X90740000Y18720000D03*
X90840000Y38890000D03*
X17270000Y18630000D03*
%TO.N,Net-(J1-Pin_4)*%
X16800000Y35720000D03*
%TO.N,Net-(J1-Pin_5)*%
X30124096Y25094096D03*
%TO.N,Net-(J1-Pin_3)*%
X24420000Y32780000D03*
X103790000Y42420000D03*
X98243000Y34067000D03*
%TO.N,Net-(J2-Pin_1)*%
X39790000Y42130000D03*
X60190000Y42130000D03*
%TO.N,Net-(J3-Pin_3)*%
X73280000Y42095400D03*
X65250000Y42095400D03*
X94505000Y55094000D03*
X35389800Y38800000D03*
%TO.N,Net-(J3-Pin_4)*%
X32040000Y49470000D03*
X70860000Y47700000D03*
X91965000Y54945000D03*
%TO.N,Net-(J6-Pin_1)*%
X88180000Y38800000D03*
X19340000Y49720000D03*
%TO.N,Net-(J7-Pin_2)*%
X52310000Y44880000D03*
X68110000Y11490000D03*
X95970000Y11510000D03*
X68110000Y44360000D03*
%TD*%
D18*
%TO.N,Net-(J3-Pin_4)*%
X71700000Y5720000D02*
X71700000Y38920000D01*
X67090000Y1110000D02*
X71700000Y5720000D01*
X25330000Y1110000D02*
X67090000Y1110000D01*
X15430000Y11010000D02*
X25330000Y1110000D01*
X12270000Y11010000D02*
X15430000Y11010000D01*
X12060000Y11220000D02*
X12270000Y11010000D01*
%TO.N,Net-(J2-Pin_6)*%
X56870000Y16270000D02*
X56720000Y16420000D01*
X58478400Y16398400D02*
X58350000Y16270000D01*
X58478400Y46241600D02*
X58478400Y16398400D01*
X58350000Y16270000D02*
X56870000Y16270000D01*
X48000000Y56720000D02*
X58478400Y46241600D01*
X24420000Y56720000D02*
X48000000Y56720000D01*
X24420000Y53720000D02*
X24420000Y56720000D01*
%TO.N,Net-(J1-Pin_1)*%
X62030000Y31610000D02*
X65000000Y28640000D01*
X62030000Y41140158D02*
X62030000Y31610000D01*
X62650000Y41760158D02*
X62030000Y41140158D01*
X62650000Y42499842D02*
X62650000Y41760158D01*
X62030000Y49570000D02*
X62030000Y43119842D01*
X61750000Y49850000D02*
X62030000Y49570000D01*
X62030000Y43119842D02*
X62650000Y42499842D01*
%TO.N,Net-(J1-Pin_3)*%
X24420000Y32780000D02*
X24420000Y28320000D01*
X98300000Y42420000D02*
X103790000Y42420000D01*
X98243000Y34067000D02*
X98300000Y34124000D01*
X98300000Y34124000D02*
X98300000Y42420000D01*
%TO.N,Net-(J1-Pin_6)*%
X98150000Y30990000D02*
X100600000Y30990000D01*
X98100000Y31040000D02*
X98150000Y30990000D01*
X100600000Y30990000D02*
X104190000Y34580000D01*
X44740000Y31043973D02*
X44740000Y28320000D01*
%TO.N,Net-(J1-Pin_1)*%
X61750000Y49900000D02*
X61750000Y49850000D01*
X89335000Y3445000D02*
X94250000Y3445000D01*
X79170000Y28720000D02*
X79250000Y28640000D01*
X83040000Y45868300D02*
X83040000Y30350000D01*
X84750000Y8030000D02*
X89335000Y3445000D01*
X47280000Y53720000D02*
X47280000Y50220000D01*
X84750000Y28640000D02*
X84750000Y8030000D01*
%TO.N,Net-(J1-Pin_2)*%
X94270000Y38790000D02*
X94280000Y38800000D01*
%TO.N,Net-(J1-Pin_8)*%
X19340000Y28320000D02*
X19340000Y23970000D01*
%TO.N,Net-(J1-Pin_7)*%
X26960000Y28320000D02*
X26960000Y24470000D01*
%TO.N,Net-(J1-Pin_1)*%
X86890000Y49718300D02*
X83040000Y45868300D01*
X63910000Y51220000D02*
X62630000Y49940000D01*
X104200000Y47570000D02*
X101207000Y47570000D01*
X86890000Y51470000D02*
X86890000Y49718300D01*
X65670000Y51220000D02*
X63910000Y51220000D01*
X61710000Y49940000D02*
X61750000Y49900000D01*
X17220000Y16090000D02*
X12270000Y16090000D01*
X83040000Y30350000D02*
X84750000Y28640000D01*
X101207000Y47570000D02*
X100474000Y48303000D01*
X62630000Y49940000D02*
X61710000Y49940000D01*
X75000000Y28720000D02*
X79170000Y28720000D01*
X12270000Y16090000D02*
X12060000Y16300000D01*
%TO.N,Net-(J1-Pin_2)*%
X89430000Y43650000D02*
X89430000Y51470000D01*
X90900000Y38950000D02*
X90840000Y38890000D01*
X89430000Y54780000D02*
X89380000Y54830000D01*
X91470000Y38800000D02*
X94280000Y38800000D01*
X94170000Y18640000D02*
X94250000Y18720000D01*
X91380000Y38890000D02*
X91470000Y38800000D01*
X91030000Y18640000D02*
X94170000Y18640000D01*
X90840000Y38890000D02*
X91380000Y38890000D01*
X12060000Y18840000D02*
X12270000Y18630000D01*
X56720000Y6260000D02*
X54800000Y6260000D01*
X90840000Y18830000D02*
X91030000Y18640000D01*
X47280000Y13780000D02*
X47280000Y28320000D01*
X12270000Y18630000D02*
X17270000Y18630000D01*
X90840000Y38890000D02*
X90840000Y18830000D01*
X90900000Y42180000D02*
X90900000Y38950000D01*
X68210000Y51220000D02*
X68210000Y56180000D01*
X89430000Y51470000D02*
X89430000Y54780000D01*
X54800000Y6260000D02*
X47280000Y13780000D01*
X68210000Y56180000D02*
X68250000Y56220000D01*
X90900000Y42180000D02*
X89430000Y43650000D01*
%TO.N,Net-(J1-Pin_5)*%
X29500000Y25718192D02*
X30124096Y25094096D01*
X29500000Y28320000D02*
X29500000Y25718192D01*
%TO.N,Net-(J1-Pin_4)*%
X16800000Y35720000D02*
X16800000Y28320000D01*
%TO.N,Net-(J1-Pin_3)*%
X103790000Y42420000D02*
X104005000Y42205000D01*
%TO.N,Net-(J2-Pin_1)*%
X56720000Y3720000D02*
X56730000Y3730000D01*
X60280000Y3730000D02*
X60260000Y3750000D01*
X8810000Y40070000D02*
X4200000Y40070000D01*
X56730000Y3730000D02*
X60280000Y3730000D01*
X1560000Y42830000D02*
X1560000Y53720000D01*
X4200000Y40070000D02*
X4200000Y40190000D01*
X60260000Y3750000D02*
X60260000Y42060000D01*
X4200000Y40190000D02*
X1560000Y42830000D01*
X39790000Y42130000D02*
X21010000Y42130000D01*
X1500000Y53660000D02*
X1560000Y53720000D01*
X39790000Y42130000D02*
X39870000Y42130000D01*
X18950000Y40070000D02*
X8810000Y40070000D01*
X21010000Y42130000D02*
X18950000Y40070000D01*
%TO.N,Net-(J2-Pin_7)*%
X26960000Y45970000D02*
X26960000Y53720000D01*
%TO.N,Net-(J2-Pin_5)*%
X42200000Y34670000D02*
X42200000Y28320000D01*
X42250000Y34720000D02*
X42200000Y34670000D01*
%TO.N,Net-(J3-Pin_3)*%
X34580000Y26418300D02*
X34580000Y28320000D01*
X21711700Y13550000D02*
X34580000Y26418300D01*
%TO.N,Net-(J2-Pin_7)*%
X41000000Y45970000D02*
X26960000Y45970000D01*
%TO.N,Net-(J3-Pin_3)*%
X34580000Y37990200D02*
X35389800Y38800000D01*
X73280000Y42095400D02*
X73280000Y42644000D01*
X73290000Y42654000D02*
X73290000Y51220000D01*
X73280000Y42644000D02*
X73290000Y42654000D01*
%TO.N,Net-(J2-Pin_7)*%
X56720000Y30250000D02*
X41000000Y45970000D01*
%TO.N,Net-(J3-Pin_3)*%
X12060000Y13760000D02*
X12270000Y13550000D01*
%TO.N,Net-(J2-Pin_5)*%
X52472800Y18127200D02*
X52472800Y30497200D01*
%TO.N,Net-(J3-Pin_3)*%
X65000000Y41845400D02*
X65250000Y42095400D01*
%TO.N,Net-(J2-Pin_1)*%
X60260000Y42060000D02*
X60190000Y42130000D01*
%TO.N,Net-(J3-Pin_3)*%
X12270000Y13550000D02*
X21711700Y13550000D01*
%TO.N,Net-(J2-Pin_5)*%
X48250000Y34720000D02*
X42250000Y34720000D01*
X56720000Y13880000D02*
X52472800Y18127200D01*
%TO.N,Net-(J2-Pin_7)*%
X56720000Y18960000D02*
X56720000Y30250000D01*
%TO.N,Net-(J3-Pin_3)*%
X65000000Y38800000D02*
X65000000Y41845400D01*
X34580000Y28320000D02*
X34580000Y37990200D01*
%TO.N,Net-(J2-Pin_5)*%
X52472800Y30497200D02*
X48250000Y34720000D01*
%TO.N,Net-(J3-Pin_4)*%
X72230000Y38920000D02*
X72270000Y38880000D01*
%TO.N,Net-(J6-Pin_1)*%
X88180000Y38800000D02*
X84750000Y38800000D01*
X88230000Y38800000D02*
X88180000Y38800000D01*
X88230000Y16180000D02*
X88230000Y38800000D01*
%TO.N,Net-(J7-Pin_2)*%
X52340000Y47790000D02*
X52340000Y44910000D01*
X37120000Y53720000D02*
X37120000Y48130000D01*
X96041900Y26878100D02*
X94280000Y28640000D01*
X96041900Y7776900D02*
X94250000Y5985000D01*
X68110000Y44360000D02*
X68110000Y11490000D01*
%TO.N,Net-(J3-Pin_4)*%
X32040000Y53720000D02*
X32040000Y49470000D01*
%TO.N,Net-(J7-Pin_2)*%
X37120000Y48130000D02*
X37300000Y47950000D01*
%TO.N,Net-(J6-Pin_1)*%
X19340000Y53720000D02*
X19340000Y49720000D01*
%TO.N,Net-(J7-Pin_2)*%
X95970000Y11510000D02*
X96041900Y11581900D01*
%TO.N,Net-(J3-Pin_4)*%
X72270000Y38880000D02*
X75000000Y38880000D01*
%TO.N,Net-(J7-Pin_2)*%
X96041900Y11438100D02*
X96041900Y7776900D01*
%TO.N,Net-(J3-Pin_4)*%
X71700000Y38920000D02*
X70750000Y39870000D01*
X70750000Y39870000D02*
X70750000Y51220000D01*
%TO.N,Net-(J7-Pin_2)*%
X96041900Y11581900D02*
X96041900Y26878100D01*
%TO.N,Net-(J6-Pin_1)*%
X94250000Y16180000D02*
X88230000Y16180000D01*
%TO.N,Net-(J3-Pin_4)*%
X71700000Y38920000D02*
X72230000Y38920000D01*
%TO.N,Net-(U1-GND1)*%
X14260000Y53720000D02*
X14260000Y49230000D01*
X14260000Y49230000D02*
X10870000Y45840000D01*
X8810000Y45820000D02*
X8810000Y42570000D01*
%TO.N,Net-(J7-Pin_2)*%
X52340000Y44910000D02*
X52310000Y44880000D01*
X95970000Y11510000D02*
X96041900Y11438100D01*
X37460000Y47790000D02*
X52340000Y47790000D01*
%TO.N,Net-(U1-GND1)*%
X8790000Y45840000D02*
X8810000Y45820000D01*
%TO.N,Net-(J7-Pin_2)*%
X37300000Y47950000D02*
X37460000Y47790000D01*
%TO.N,Net-(U1-GND1)*%
X10870000Y45840000D02*
X8790000Y45840000D01*
%TO.N,Net-(J1-Pin_1)*%
X86890000Y57960000D02*
X86890000Y51470000D01*
X100474000Y57126000D02*
X99640000Y57960000D01*
X100474000Y48303000D02*
X100474000Y57126000D01*
X99640000Y57960000D02*
X86890000Y57960000D01*
%TD*%
M02*
